<svg width="23" height="26" viewBox="0 0 23 26" fill="none" xmlns="http://www.w3.org/2000/svg">
<path d="M21.755 7.14726V10.3531C21.755 10.3531 20.2412 10.2936 19.1201 10.0076C17.5555 9.6075 16.5492 8.99395 16.5492 8.99395C16.5492 8.99395 15.855 8.55645 15.7988 8.52539V16.9773C15.7988 17.4479 15.6704 18.6234 15.2789 19.6031C14.7677 20.8857 13.9789 21.7273 13.8338 21.8993C13.8338 21.8993 12.8739 23.0369 11.1818 23.803C9.6566 24.4941 8.31714 24.4766 7.91617 24.4941C7.91617 24.4941 5.60116 24.5861 3.51699 23.2275L3.50659 23.22C3.28655 23.0061 3.07943 22.7805 2.88624 22.5439C2.22115 21.7303 1.81348 20.7681 1.71103 20.4936V20.4902C1.5462 20.0132 1.19988 18.8675 1.2472 17.7579C1.33092 15.8002 2.01731 14.5985 2.19879 14.2975C2.67943 13.4766 3.30456 12.7421 4.04636 12.1268C4.70095 11.5958 5.44291 11.1733 6.24177 10.8766C7.10542 10.5284 8.03021 10.3416 8.9666 10.3266V13.5719C8.9666 13.5719 7.25368 13.0269 5.88297 13.992C4.92463 14.706 4.41607 15.4026 4.26631 16.6467C4.26007 17.5624 4.49355 18.858 5.7743 19.7221C5.9237 19.8171 6.07033 19.9014 6.21427 19.9751C6.43794 20.2669 6.7103 20.5212 7.02023 20.7277C8.27133 21.5223 9.31965 21.5778 10.6603 21.0617C11.5541 20.7167 12.2269 19.9391 12.539 19.0775C12.7351 18.5395 12.7325 17.9979 12.7325 17.4379V1.50616H15.8524C15.9814 2.24174 16.3381 3.28885 17.2814 4.32596C17.6597 4.71755 18.086 5.06376 18.5507 5.35707C18.688 5.49958 19.39 6.20415 20.2911 6.6367C20.7571 6.86029 21.2483 7.03159 21.755 7.14726Z" fill="black"/>
<path d="M0.468872 19.4969V19.4994L0.546286 19.71C0.537393 19.6854 0.508624 19.6109 0.468872 19.4969Z" fill="#69C9D0"/>
<path d="M6.24144 10.8765C5.44256 11.1733 4.70061 11.5958 4.04601 12.1267C3.30398 12.7435 2.679 13.4795 2.19897 14.3019C2.0175 14.602 1.3311 15.8046 1.24738 17.7623C1.20006 18.8719 1.54638 20.0176 1.71121 20.4946V20.498C1.81521 20.7702 2.22133 21.7322 2.88642 22.5483C3.07961 22.7849 3.28673 23.0106 3.50677 23.2244C2.80176 22.7554 2.17298 22.1886 1.64101 21.5422C0.981652 20.7356 0.575012 19.7835 0.468934 19.5025C0.468809 19.5005 0.468809 19.4984 0.468934 19.4965V19.493C0.303574 19.0164 -0.0437839 17.8703 0.00457355 16.7592C0.0882935 14.8015 0.7747 13.5999 0.956179 13.2988C1.43606 12.4762 2.06106 11.7402 2.80321 11.1236C3.45767 10.5924 4.19966 10.1699 4.99865 9.87346C5.49702 9.67461 6.01623 9.52798 6.54724 9.43596C7.34745 9.30163 8.16481 9.2899 8.96885 9.40144V10.3265C8.0316 10.3412 7.10585 10.528 6.24144 10.8765Z" fill="#69C9D0"/>
<path d="M15.8545 1.5061H12.7344V17.4383C12.7344 17.9983 12.7344 18.5384 12.5411 19.0779C12.226 19.9391 11.5556 20.7166 10.6622 21.0617C9.32125 21.5798 8.27292 21.5223 7.0223 20.7276C6.7118 20.5221 6.43877 20.2686 6.21423 19.9776C7.27971 20.5241 8.23335 20.5146 9.41478 20.0586C10.3077 19.7135 10.979 18.9359 11.293 18.0744C11.4896 17.5363 11.487 16.9948 11.487 16.4352V0.5H15.7952C15.7952 0.5 15.7469 0.896038 15.8545 1.5061ZM21.7544 6.2606V7.1472C21.2487 7.03136 20.7584 6.86005 20.2932 6.63665C19.3921 6.2041 18.69 5.49953 18.5528 5.35701C18.712 5.45759 18.8774 5.54909 19.0478 5.63104C20.1434 6.15709 21.2224 6.31411 21.7544 6.2606Z" fill="#69C9D0"/>
<path d="M4.26546 16.6467C4.41522 15.4026 4.92378 14.706 5.88212 13.992C7.2534 13.0249 8.96622 13.5719 8.96622 13.5719V10.3266C9.38272 10.3159 9.7993 10.3407 10.2111 10.4006V14.577C10.2111 14.577 8.49875 14.03 7.12757 14.9976C6.16971 15.7111 5.6601 16.4083 5.51086 17.6524C5.50618 18.328 5.63254 19.211 6.21447 19.9746C6.07052 19.9006 5.9239 19.8162 5.7745 19.7216C4.4927 18.858 4.25922 17.5624 4.26546 16.6467ZM17.2837 4.32596C16.3404 3.28885 15.9836 2.24174 15.8547 1.50616H17.0413C17.0413 1.50616 16.8047 3.43486 18.529 5.33157L18.553 5.35707C18.0882 5.06376 17.662 4.71755 17.2837 4.32596ZM23 7.26626V11.3587C23 11.3587 21.4858 11.2992 20.3652 11.0132C18.8004 10.6131 17.7948 9.99952 17.7948 9.99952C17.7948 9.99952 17.1001 9.56202 17.0439 9.53154V17.9824C17.0439 18.453 16.9155 19.6281 16.5239 20.6082C16.0128 21.8904 15.2239 22.7319 15.0789 22.9039C15.0789 22.9039 14.1195 24.0415 12.4269 24.8077C10.9012 25.4987 9.56164 25.4812 9.16124 25.4987C9.16124 25.4987 6.84572 25.5907 4.76206 24.2321C4.31148 23.9326 3.8909 23.5934 3.50574 23.2189L3.51615 23.2264C5.6003 24.5851 7.91532 24.493 7.91532 24.493C8.31628 24.4755 9.65574 24.493 11.1809 23.802C12.872 23.0359 13.8329 21.8983 13.8329 21.8983C13.9765 21.7263 14.7689 20.8847 15.278 19.6021C15.6685 18.6225 15.798 17.4468 15.798 16.9763V8.52645C15.8541 8.55741 16.5484 8.99491 16.5484 8.99491C16.5484 8.99491 17.5546 9.60904 19.1193 10.0086C20.2403 10.2946 21.7541 10.3541 21.7541 10.3541V7.14726C22.272 7.26376 22.7135 7.2953 23 7.26626Z" fill="#EE1D52"/>
</svg>
