<svg width="26" height="26" viewBox="0 0 26 26" fill="none" xmlns="http://www.w3.org/2000/svg">
<path fill-rule="evenodd" clip-rule="evenodd" d="M7.63055 0.159547C5.5143 0.255032 3.68006 0.772426 2.19894 2.24728C0.712653 3.72989 0.201684 5.5714 0.105961 7.66562C0.0464573 8.97274 -0.301488 18.8477 0.707481 21.4375C1.38789 23.1846 2.72797 24.5279 4.49108 25.2105C5.31378 25.5305 6.25292 25.7471 7.63055 25.8103C19.1496 26.3316 23.4196 26.0478 25.2202 21.4375C25.5397 20.6168 25.7596 19.6785 25.8204 18.3043C26.3469 6.7557 25.7351 4.25248 23.7275 2.24728C22.1351 0.658872 20.2621 -0.422396 7.63055 0.159547ZM7.7366 23.4877C6.47539 23.431 5.79111 23.2208 5.33449 23.044C4.18581 22.5976 3.32302 21.7383 2.87933 20.5964C2.11096 18.6286 2.3658 9.28265 2.43436 7.77036C2.50163 6.28904 2.80172 4.93522 3.84691 3.89005C5.14046 2.5997 6.81171 1.96731 18.1911 2.48088C19.6761 2.54797 21.033 2.84746 22.0808 3.89005C23.3743 5.18039 24.0159 6.8645 23.4933 18.2002C23.4364 19.4582 23.2256 20.1409 23.0484 20.5964C21.8777 23.5964 19.1845 24.0129 7.7366 23.4877ZM18.3166 6.09649C18.3166 6.9507 19.0112 7.64531 19.8688 7.64531C20.7265 7.64531 21.4224 6.9507 21.4224 6.09649C21.4224 5.24229 20.7265 4.5483 19.8688 4.5483C19.0112 4.5483 18.3166 5.24229 18.3166 6.09649ZM6.32147 12.9843C6.32147 16.6437 9.29535 19.6106 12.9639 19.6106C16.6324 19.6106 19.6062 16.6437 19.6062 12.9843C19.6062 9.3249 16.6324 6.35992 12.9639 6.35992C9.29535 6.35992 6.32147 9.3249 6.32147 12.9843ZM8.65245 12.9843C8.65245 10.6101 10.5824 8.68379 12.9639 8.68379C15.3453 8.68379 17.2753 10.6101 17.2753 12.9843C17.2753 15.3598 15.3453 17.2867 12.9639 17.2867C10.5824 17.2867 8.65245 15.3598 8.65245 12.9843Z" fill="black"/>
</svg>
