<svg width="36" height="26" viewBox="0 0 36 26" fill="none" xmlns="http://www.w3.org/2000/svg">
<path fill-rule="evenodd" clip-rule="evenodd" d="M14.3792 17.8028V7.38084C17.9652 9.12178 20.7425 10.8036 24.0272 12.6167C21.318 14.1669 17.9652 15.9063 14.3792 17.8028ZM34.3638 2.19753C33.7452 1.35669 32.691 0.702165 31.5686 0.485473C28.2695 -0.160905 7.68777 -0.162743 4.39047 0.485473C3.49039 0.659562 2.68891 1.08036 2.0004 1.73415C-0.900652 4.51225 0.00839912 19.4103 0.707665 21.8236C1.00171 22.8681 1.38184 23.6215 1.86057 24.116C2.47736 24.7697 3.32184 25.2199 4.29184 25.4218C7.00822 26.0015 21.0025 26.3256 31.5112 25.5088C32.4794 25.3347 33.3364 24.8701 34.0124 24.1885C36.6947 21.4215 36.5118 5.68682 34.3638 2.19753Z" fill="black"/>
</svg>
