<svg width="114" height="30" viewBox="0 0 114 30" fill="none" xmlns="http://www.w3.org/2000/svg">
<path d="M7.43151 0.447472L14.4628 22.5497H14.7326L21.7781 0.447472H28.5963L18.5679 29.5384H10.6417L0.599121 0.447472H7.43151Z" fill="black"/>
<path d="M50.0665 0.447472H56.217V19.3395C56.217 21.4607 55.7104 23.3168 54.6971 24.9077C53.6933 26.4986 52.2871 27.7391 50.4784 28.6293C48.6697 29.51 46.5627 29.9503 44.1574 29.9503C41.7426 29.9503 39.6308 29.51 37.8221 28.6293C36.0134 27.7391 34.6072 26.4986 33.6034 24.9077C32.5996 23.3168 32.0977 21.4607 32.0977 19.3395V0.447472H38.2483V18.8139C38.2483 19.9219 38.4897 20.9068 38.9727 21.7685C39.4651 22.6302 40.1564 23.3073 41.0466 23.7997C41.9367 24.2922 42.9736 24.5384 44.1574 24.5384C45.3505 24.5384 46.3875 24.2922 47.2682 23.7997C48.1583 23.3073 48.8449 22.6302 49.3278 21.7685C49.8202 20.9068 50.0665 19.9219 50.0665 18.8139V0.447472Z" fill="black"/>
<path d="M60.1694 5.51849V0.447472H84.0615V5.51849H75.1552V29.5384H69.0757V5.51849H60.1694Z" fill="black"/>
<path d="M113.401 14.9929C113.401 18.1653 112.8 20.8641 111.597 23.0895C110.404 25.3149 108.775 27.0147 106.711 28.189C104.656 29.3537 102.345 29.9361 99.7788 29.9361C97.1936 29.9361 94.8735 29.349 92.8186 28.1747C90.7637 27.0005 89.1396 25.3007 87.9464 23.0753C86.7532 20.8499 86.1566 18.1558 86.1566 14.9929C86.1566 11.8206 86.7532 9.12172 87.9464 6.89634C89.1396 4.67096 90.7637 2.97588 92.8186 1.81111C94.8735 0.636866 97.1936 0.0497437 99.7788 0.0497437C102.345 0.0497437 104.656 0.636866 106.711 1.81111C108.775 2.97588 110.404 4.67096 111.597 6.89634C112.8 9.12172 113.401 11.8206 113.401 14.9929ZM107.165 14.9929C107.165 12.938 106.857 11.205 106.242 9.79406C105.636 8.38308 104.779 7.313 103.671 6.58384C102.563 5.85467 101.266 5.49009 99.7788 5.49009C98.2921 5.49009 96.9947 5.85467 95.8868 6.58384C94.7788 7.313 93.9171 8.38308 93.3015 9.79406C92.6955 11.205 92.3924 12.938 92.3924 14.9929C92.3924 17.0478 92.6955 18.7808 93.3015 20.1918C93.9171 21.6028 94.7788 22.6729 95.8868 23.402C96.9947 24.1312 98.2921 24.4958 99.7788 24.4958C101.266 24.4958 102.563 24.1312 103.671 23.402C104.779 22.6729 105.636 21.6028 106.242 20.1918C106.857 18.7808 107.165 17.0478 107.165 14.9929Z" fill="black"/>
</svg>
